# xmcd CD database file
#
# Track frame offsets:
#	150
#	19116
#	35692
#	57432
#	93433
#	115820
#	148081
#	177988
#	202968
#	216353
#	246815
#	266259
#	287885
#
# Disc length: 4320 seconds
#
# Revision: 0
# Processed by: cddbd v1.5.1PL2 Copyright (c) Steve Scherf et al.
# Submitted via: CDex 1.51
#
DISCID=c310de0d
DTITLE=Jens Anderson - daab club vol.01
DYEAR=2006
DGENRE=New Age
TTITLE0=BENT - MAGIG LOVE
TTITLE1=D'SOUND - IN THE GAME
TTITLE2=THE EGG - FUNKY DUBE'
TTITLE3=SCHWARZ UND FUNK - GOOD FELLAS
TTITLE4=KRAAK and SMAAK - KEEP ON SERCHING
TTITLE5=SCHWARZ UND FUNK - FEEL IT
TTITLE6=TIMBALESTICS - THE VIBE
TTITLE7=KRAAK UND SMAAK - KEEP ME HOME
TTITLE8=IKON - THE DOVE
TTITLE9=SCHWARZ and FUNK - SOULPHONIC
TTITLE10=ALICE RUSSEL - SOMETHING THAT´S REAL
TTITLE11=RESIN DOGS - SHE´S GONE
TTITLE12=SCHWARZ and FUNK - PUMPIN´
EXTD=YEAR: 2006
EXTT0=
EXTT1=
EXTT2=
EXTT3=
EXTT4=
EXTT5=
EXTT6=
EXTT7=
EXTT8=
EXTT9=
EXTT10=
EXTT11=
EXTT12=
PLAYORDER=
